G04 #@! TF.GenerationSoftware,KiCad,Pcbnew,5.0.1*
G04 #@! TF.CreationDate,2019-03-20T12:14:45+09:00*
G04 #@! TF.ProjectId,supersonic_bone_therapy_equipment,7375706572736F6E69635F626F6E655F,rev?*
G04 #@! TF.SameCoordinates,Original*
G04 #@! TF.FileFunction,Soldermask,Top*
G04 #@! TF.FilePolarity,Negative*
%FSLAX46Y46*%
G04 Gerber Fmt 4.6, Leading zero omitted, Abs format (unit mm)*
G04 Created by KiCad (PCBNEW 5.0.1) date 2019年03月20日 12時14分45秒*
%MOMM*%
%LPD*%
G01*
G04 APERTURE LIST*
%ADD10C,0.100000*%
G04 APERTURE END LIST*
D10*
G36*
X181375256Y-110391298D02*
X181481579Y-110412447D01*
X181782042Y-110536903D01*
X182048852Y-110715180D01*
X182052454Y-110717587D01*
X182282413Y-110947546D01*
X182463098Y-111217960D01*
X182587553Y-111518422D01*
X182651000Y-111837389D01*
X182651000Y-112162611D01*
X182587553Y-112481578D01*
X182463098Y-112782040D01*
X182282413Y-113052454D01*
X182052454Y-113282413D01*
X182052451Y-113282415D01*
X181782042Y-113463097D01*
X181481579Y-113587553D01*
X181375256Y-113608702D01*
X181162611Y-113651000D01*
X180837389Y-113651000D01*
X180624744Y-113608702D01*
X180518421Y-113587553D01*
X180217958Y-113463097D01*
X179947549Y-113282415D01*
X179947546Y-113282413D01*
X179717587Y-113052454D01*
X179536902Y-112782040D01*
X179412447Y-112481578D01*
X179349000Y-112162611D01*
X179349000Y-111837389D01*
X179412447Y-111518422D01*
X179536902Y-111217960D01*
X179717587Y-110947546D01*
X179947546Y-110717587D01*
X179951148Y-110715180D01*
X180217958Y-110536903D01*
X180518421Y-110412447D01*
X180624744Y-110391298D01*
X180837389Y-110349000D01*
X181162611Y-110349000D01*
X181375256Y-110391298D01*
X181375256Y-110391298D01*
G37*
G36*
X127375256Y-110391298D02*
X127481579Y-110412447D01*
X127782042Y-110536903D01*
X128048852Y-110715180D01*
X128052454Y-110717587D01*
X128282413Y-110947546D01*
X128463098Y-111217960D01*
X128587553Y-111518422D01*
X128651000Y-111837389D01*
X128651000Y-112162611D01*
X128587553Y-112481578D01*
X128463098Y-112782040D01*
X128282413Y-113052454D01*
X128052454Y-113282413D01*
X128052451Y-113282415D01*
X127782042Y-113463097D01*
X127481579Y-113587553D01*
X127375256Y-113608702D01*
X127162611Y-113651000D01*
X126837389Y-113651000D01*
X126624744Y-113608702D01*
X126518421Y-113587553D01*
X126217958Y-113463097D01*
X125947549Y-113282415D01*
X125947546Y-113282413D01*
X125717587Y-113052454D01*
X125536902Y-112782040D01*
X125412447Y-112481578D01*
X125349000Y-112162611D01*
X125349000Y-111837389D01*
X125412447Y-111518422D01*
X125536902Y-111217960D01*
X125717587Y-110947546D01*
X125947546Y-110717587D01*
X125951148Y-110715180D01*
X126217958Y-110536903D01*
X126518421Y-110412447D01*
X126624744Y-110391298D01*
X126837389Y-110349000D01*
X127162611Y-110349000D01*
X127375256Y-110391298D01*
X127375256Y-110391298D01*
G37*
G36*
X151651000Y-112761000D02*
X150349000Y-112761000D01*
X150349000Y-111459000D01*
X151651000Y-111459000D01*
X151651000Y-112761000D01*
X151651000Y-112761000D01*
G37*
G36*
X146063000Y-112761000D02*
X144761000Y-112761000D01*
X144761000Y-111459000D01*
X146063000Y-111459000D01*
X146063000Y-112761000D01*
X146063000Y-112761000D01*
G37*
G36*
X148863000Y-112761000D02*
X147561000Y-112761000D01*
X147561000Y-111459000D01*
X148863000Y-111459000D01*
X148863000Y-112761000D01*
X148863000Y-112761000D01*
G37*
G36*
X154451000Y-112761000D02*
X153149000Y-112761000D01*
X153149000Y-111459000D01*
X154451000Y-111459000D01*
X154451000Y-112761000D01*
X154451000Y-112761000D01*
G37*
G36*
X157213600Y-112735600D02*
X155911600Y-112735600D01*
X155911600Y-111433600D01*
X157213600Y-111433600D01*
X157213600Y-112735600D01*
X157213600Y-112735600D01*
G37*
G36*
X160013600Y-112735600D02*
X158711600Y-112735600D01*
X158711600Y-111433600D01*
X160013600Y-111433600D01*
X160013600Y-112735600D01*
X160013600Y-112735600D01*
G37*
G36*
X147663000Y-109671000D02*
X145961000Y-109671000D01*
X145961000Y-108069000D01*
X147663000Y-108069000D01*
X147663000Y-109671000D01*
X147663000Y-109671000D01*
G37*
G36*
X153251000Y-109671000D02*
X151549000Y-109671000D01*
X151549000Y-108069000D01*
X153251000Y-108069000D01*
X153251000Y-109671000D01*
X153251000Y-109671000D01*
G37*
G36*
X158813600Y-109645600D02*
X157111600Y-109645600D01*
X157111600Y-108043600D01*
X158813600Y-108043600D01*
X158813600Y-109645600D01*
X158813600Y-109645600D01*
G37*
G36*
X168766225Y-105869760D02*
X168766228Y-105869761D01*
X168766229Y-105869761D01*
X168945493Y-105924140D01*
X168945495Y-105924141D01*
X169110705Y-106012448D01*
X169255512Y-106131288D01*
X169374352Y-106276095D01*
X169462659Y-106441305D01*
X169517040Y-106620575D01*
X169535401Y-106807000D01*
X169517040Y-106993425D01*
X169462659Y-107172695D01*
X169374352Y-107337905D01*
X169255512Y-107482712D01*
X169110705Y-107601552D01*
X169054892Y-107631385D01*
X168945493Y-107689860D01*
X168766229Y-107744239D01*
X168766228Y-107744239D01*
X168766225Y-107744240D01*
X168626518Y-107758000D01*
X168533082Y-107758000D01*
X168393375Y-107744240D01*
X168393372Y-107744239D01*
X168393371Y-107744239D01*
X168214107Y-107689860D01*
X168104708Y-107631385D01*
X168048895Y-107601552D01*
X167904088Y-107482712D01*
X167785248Y-107337905D01*
X167696941Y-107172695D01*
X167642560Y-106993425D01*
X167624199Y-106807000D01*
X167642560Y-106620575D01*
X167696941Y-106441305D01*
X167785248Y-106276095D01*
X167904088Y-106131288D01*
X168048895Y-106012448D01*
X168214105Y-105924141D01*
X168214107Y-105924140D01*
X168393371Y-105869761D01*
X168393372Y-105869761D01*
X168393375Y-105869760D01*
X168533082Y-105856000D01*
X168626518Y-105856000D01*
X168766225Y-105869760D01*
X168766225Y-105869760D01*
G37*
G36*
X127306565Y-105689389D02*
X127497834Y-105768615D01*
X127669976Y-105883637D01*
X127816363Y-106030024D01*
X127931385Y-106202166D01*
X128010611Y-106393435D01*
X128051000Y-106596484D01*
X128051000Y-106803516D01*
X128010611Y-107006565D01*
X127931385Y-107197834D01*
X127816363Y-107369976D01*
X127669976Y-107516363D01*
X127497834Y-107631385D01*
X127306565Y-107710611D01*
X127103516Y-107751000D01*
X126896484Y-107751000D01*
X126693435Y-107710611D01*
X126502166Y-107631385D01*
X126330024Y-107516363D01*
X126183637Y-107369976D01*
X126068615Y-107197834D01*
X125989389Y-107006565D01*
X125949000Y-106803516D01*
X125949000Y-106596484D01*
X125989389Y-106393435D01*
X126068615Y-106202166D01*
X126183637Y-106030024D01*
X126330024Y-105883637D01*
X126502166Y-105768615D01*
X126693435Y-105689389D01*
X126896484Y-105649000D01*
X127103516Y-105649000D01*
X127306565Y-105689389D01*
X127306565Y-105689389D01*
G37*
G36*
X147971000Y-107360000D02*
X146669000Y-107360000D01*
X146669000Y-106508000D01*
X147971000Y-106508000D01*
X147971000Y-107360000D01*
X147971000Y-107360000D01*
G37*
G36*
X146071000Y-107360000D02*
X144769000Y-107360000D01*
X144769000Y-106508000D01*
X146071000Y-106508000D01*
X146071000Y-107360000D01*
X146071000Y-107360000D01*
G37*
G36*
X140097000Y-107360000D02*
X138795000Y-107360000D01*
X138795000Y-106508000D01*
X140097000Y-106508000D01*
X140097000Y-107360000D01*
X140097000Y-107360000D01*
G37*
G36*
X141997000Y-107360000D02*
X140695000Y-107360000D01*
X140695000Y-106508000D01*
X141997000Y-106508000D01*
X141997000Y-107360000D01*
X141997000Y-107360000D01*
G37*
G36*
X168766225Y-103329760D02*
X168766228Y-103329761D01*
X168766229Y-103329761D01*
X168945493Y-103384140D01*
X168945495Y-103384141D01*
X169110705Y-103472448D01*
X169255512Y-103591288D01*
X169374352Y-103736095D01*
X169462659Y-103901305D01*
X169517040Y-104080575D01*
X169535401Y-104267000D01*
X169517040Y-104453425D01*
X169462659Y-104632695D01*
X169374352Y-104797905D01*
X169255512Y-104942712D01*
X169110705Y-105061552D01*
X169110703Y-105061553D01*
X168945493Y-105149860D01*
X168766229Y-105204239D01*
X168766228Y-105204239D01*
X168766225Y-105204240D01*
X168626518Y-105218000D01*
X168533082Y-105218000D01*
X168393375Y-105204240D01*
X168393372Y-105204239D01*
X168393371Y-105204239D01*
X168214107Y-105149860D01*
X168048897Y-105061553D01*
X168048895Y-105061552D01*
X167904088Y-104942712D01*
X167785248Y-104797905D01*
X167696941Y-104632695D01*
X167642560Y-104453425D01*
X167624199Y-104267000D01*
X167642560Y-104080575D01*
X167696941Y-103901305D01*
X167785248Y-103736095D01*
X167904088Y-103591288D01*
X168048895Y-103472448D01*
X168214105Y-103384141D01*
X168214107Y-103384140D01*
X168393371Y-103329761D01*
X168393372Y-103329761D01*
X168393375Y-103329760D01*
X168533082Y-103316000D01*
X168626518Y-103316000D01*
X168766225Y-103329760D01*
X168766225Y-103329760D01*
G37*
G36*
X139797000Y-105007000D02*
X139095000Y-105007000D01*
X139095000Y-103405000D01*
X139797000Y-103405000D01*
X139797000Y-105007000D01*
X139797000Y-105007000D01*
G37*
G36*
X141067000Y-105007000D02*
X140365000Y-105007000D01*
X140365000Y-103405000D01*
X141067000Y-103405000D01*
X141067000Y-105007000D01*
X141067000Y-105007000D01*
G37*
G36*
X147417000Y-105007000D02*
X146715000Y-105007000D01*
X146715000Y-103405000D01*
X147417000Y-103405000D01*
X147417000Y-105007000D01*
X147417000Y-105007000D01*
G37*
G36*
X144877000Y-105007000D02*
X144175000Y-105007000D01*
X144175000Y-103405000D01*
X144877000Y-103405000D01*
X144877000Y-105007000D01*
X144877000Y-105007000D01*
G37*
G36*
X143607000Y-105007000D02*
X142905000Y-105007000D01*
X142905000Y-103405000D01*
X143607000Y-103405000D01*
X143607000Y-105007000D01*
X143607000Y-105007000D01*
G37*
G36*
X142337000Y-105007000D02*
X141635000Y-105007000D01*
X141635000Y-103405000D01*
X142337000Y-103405000D01*
X142337000Y-105007000D01*
X142337000Y-105007000D01*
G37*
G36*
X146147000Y-105007000D02*
X145445000Y-105007000D01*
X145445000Y-103405000D01*
X146147000Y-103405000D01*
X146147000Y-105007000D01*
X146147000Y-105007000D01*
G37*
G36*
X134051000Y-104601000D02*
X131089000Y-104601000D01*
X131089000Y-103799000D01*
X134051000Y-103799000D01*
X134051000Y-104601000D01*
X134051000Y-104601000D01*
G37*
G36*
X181626104Y-101939585D02*
X181794626Y-102009389D01*
X181946291Y-102110728D01*
X182075272Y-102239709D01*
X182176611Y-102391374D01*
X182246415Y-102559896D01*
X182282000Y-102738797D01*
X182282000Y-102921203D01*
X182246415Y-103100104D01*
X182176611Y-103268626D01*
X182075272Y-103420291D01*
X181946291Y-103549272D01*
X181794626Y-103650611D01*
X181626104Y-103720415D01*
X181447203Y-103756000D01*
X181264797Y-103756000D01*
X181085896Y-103720415D01*
X180917374Y-103650611D01*
X180765709Y-103549272D01*
X180636728Y-103420291D01*
X180535389Y-103268626D01*
X180465585Y-103100104D01*
X180430000Y-102921203D01*
X180430000Y-102738797D01*
X180465585Y-102559896D01*
X180535389Y-102391374D01*
X180636728Y-102239709D01*
X180765709Y-102110728D01*
X180917374Y-102009389D01*
X181085896Y-101939585D01*
X181264797Y-101904000D01*
X181447203Y-101904000D01*
X181626104Y-101939585D01*
X181626104Y-101939585D01*
G37*
G36*
X169530800Y-102678000D02*
X167628800Y-102678000D01*
X167628800Y-100776000D01*
X169530800Y-100776000D01*
X169530800Y-102678000D01*
X169530800Y-102678000D01*
G37*
G36*
X163218800Y-102253400D02*
X161916800Y-102253400D01*
X161916800Y-101251400D01*
X163218800Y-101251400D01*
X163218800Y-102253400D01*
X163218800Y-102253400D01*
G37*
G36*
X161018800Y-102253400D02*
X159716800Y-102253400D01*
X159716800Y-101251400D01*
X161018800Y-101251400D01*
X161018800Y-102253400D01*
X161018800Y-102253400D01*
G37*
G36*
X134051000Y-102201000D02*
X131089000Y-102201000D01*
X131089000Y-101399000D01*
X134051000Y-101399000D01*
X134051000Y-102201000D01*
X134051000Y-102201000D01*
G37*
G36*
X138195600Y-101336600D02*
X137343600Y-101336600D01*
X137343600Y-100034600D01*
X138195600Y-100034600D01*
X138195600Y-101336600D01*
X138195600Y-101336600D01*
G37*
G36*
X182282000Y-101256000D02*
X180430000Y-101256000D01*
X180430000Y-99404000D01*
X182282000Y-99404000D01*
X182282000Y-101256000D01*
X182282000Y-101256000D01*
G37*
G36*
X127306565Y-98289389D02*
X127497834Y-98368615D01*
X127669976Y-98483637D01*
X127816363Y-98630024D01*
X127931385Y-98802166D01*
X128010611Y-98993435D01*
X128051000Y-99196484D01*
X128051000Y-99403516D01*
X128010611Y-99606565D01*
X127931385Y-99797834D01*
X127816363Y-99969976D01*
X127669976Y-100116363D01*
X127497834Y-100231385D01*
X127306565Y-100310611D01*
X127103516Y-100351000D01*
X126896484Y-100351000D01*
X126693435Y-100310611D01*
X126502166Y-100231385D01*
X126330024Y-100116363D01*
X126183637Y-99969976D01*
X126068615Y-99797834D01*
X125989389Y-99606565D01*
X125949000Y-99403516D01*
X125949000Y-99196484D01*
X125989389Y-98993435D01*
X126068615Y-98802166D01*
X126183637Y-98630024D01*
X126330024Y-98483637D01*
X126502166Y-98368615D01*
X126693435Y-98289389D01*
X126896484Y-98249000D01*
X127103516Y-98249000D01*
X127306565Y-98289389D01*
X127306565Y-98289389D01*
G37*
G36*
X147417000Y-99607000D02*
X146715000Y-99607000D01*
X146715000Y-98005000D01*
X147417000Y-98005000D01*
X147417000Y-99607000D01*
X147417000Y-99607000D01*
G37*
G36*
X144877000Y-99607000D02*
X144175000Y-99607000D01*
X144175000Y-98005000D01*
X144877000Y-98005000D01*
X144877000Y-99607000D01*
X144877000Y-99607000D01*
G37*
G36*
X146147000Y-99607000D02*
X145445000Y-99607000D01*
X145445000Y-98005000D01*
X146147000Y-98005000D01*
X146147000Y-99607000D01*
X146147000Y-99607000D01*
G37*
G36*
X143607000Y-99607000D02*
X142905000Y-99607000D01*
X142905000Y-98005000D01*
X143607000Y-98005000D01*
X143607000Y-99607000D01*
X143607000Y-99607000D01*
G37*
G36*
X142337000Y-99607000D02*
X141635000Y-99607000D01*
X141635000Y-98005000D01*
X142337000Y-98005000D01*
X142337000Y-99607000D01*
X142337000Y-99607000D01*
G37*
G36*
X141067000Y-99607000D02*
X140365000Y-99607000D01*
X140365000Y-98005000D01*
X141067000Y-98005000D01*
X141067000Y-99607000D01*
X141067000Y-99607000D01*
G37*
G36*
X139797000Y-99607000D02*
X139095000Y-99607000D01*
X139095000Y-98005000D01*
X139797000Y-98005000D01*
X139797000Y-99607000D01*
X139797000Y-99607000D01*
G37*
G36*
X138195600Y-99436600D02*
X137343600Y-99436600D01*
X137343600Y-98134600D01*
X138195600Y-98134600D01*
X138195600Y-99436600D01*
X138195600Y-99436600D01*
G37*
G36*
X161036400Y-98621200D02*
X159734400Y-98621200D01*
X159734400Y-97619200D01*
X161036400Y-97619200D01*
X161036400Y-98621200D01*
X161036400Y-98621200D01*
G37*
G36*
X163236400Y-98621200D02*
X161934400Y-98621200D01*
X161934400Y-97619200D01*
X163236400Y-97619200D01*
X163236400Y-98621200D01*
X163236400Y-98621200D01*
G37*
G36*
X156586400Y-96134800D02*
X155884400Y-96134800D01*
X155884400Y-94532800D01*
X156586400Y-94532800D01*
X156586400Y-96134800D01*
X156586400Y-96134800D01*
G37*
G36*
X159126400Y-96134800D02*
X158424400Y-96134800D01*
X158424400Y-94532800D01*
X159126400Y-94532800D01*
X159126400Y-96134800D01*
X159126400Y-96134800D01*
G37*
G36*
X160396400Y-96134800D02*
X159694400Y-96134800D01*
X159694400Y-94532800D01*
X160396400Y-94532800D01*
X160396400Y-96134800D01*
X160396400Y-96134800D01*
G37*
G36*
X161666400Y-96134800D02*
X160964400Y-96134800D01*
X160964400Y-94532800D01*
X161666400Y-94532800D01*
X161666400Y-96134800D01*
X161666400Y-96134800D01*
G37*
G36*
X162936400Y-96134800D02*
X162234400Y-96134800D01*
X162234400Y-94532800D01*
X162936400Y-94532800D01*
X162936400Y-96134800D01*
X162936400Y-96134800D01*
G37*
G36*
X164206400Y-96134800D02*
X163504400Y-96134800D01*
X163504400Y-94532800D01*
X164206400Y-94532800D01*
X164206400Y-96134800D01*
X164206400Y-96134800D01*
G37*
G36*
X157856400Y-96134800D02*
X157154400Y-96134800D01*
X157154400Y-94532800D01*
X157856400Y-94532800D01*
X157856400Y-96134800D01*
X157856400Y-96134800D01*
G37*
G36*
X146075273Y-96101520D02*
X145373273Y-96101520D01*
X145373273Y-94499520D01*
X146075273Y-94499520D01*
X146075273Y-96101520D01*
X146075273Y-96101520D01*
G37*
G36*
X139725273Y-96101520D02*
X139023273Y-96101520D01*
X139023273Y-94499520D01*
X139725273Y-94499520D01*
X139725273Y-96101520D01*
X139725273Y-96101520D01*
G37*
G36*
X140995273Y-96101520D02*
X140293273Y-96101520D01*
X140293273Y-94499520D01*
X140995273Y-94499520D01*
X140995273Y-96101520D01*
X140995273Y-96101520D01*
G37*
G36*
X142265273Y-96101520D02*
X141563273Y-96101520D01*
X141563273Y-94499520D01*
X142265273Y-94499520D01*
X142265273Y-96101520D01*
X142265273Y-96101520D01*
G37*
G36*
X143535273Y-96101520D02*
X142833273Y-96101520D01*
X142833273Y-94499520D01*
X143535273Y-94499520D01*
X143535273Y-96101520D01*
X143535273Y-96101520D01*
G37*
G36*
X144805273Y-96101520D02*
X144103273Y-96101520D01*
X144103273Y-94499520D01*
X144805273Y-94499520D01*
X144805273Y-96101520D01*
X144805273Y-96101520D01*
G37*
G36*
X148615273Y-96101520D02*
X147913273Y-96101520D01*
X147913273Y-94499520D01*
X148615273Y-94499520D01*
X148615273Y-96101520D01*
X148615273Y-96101520D01*
G37*
G36*
X147345273Y-96101520D02*
X146643273Y-96101520D01*
X146643273Y-94499520D01*
X147345273Y-94499520D01*
X147345273Y-96101520D01*
X147345273Y-96101520D01*
G37*
G36*
X150493673Y-95954120D02*
X149641673Y-95954120D01*
X149641673Y-94652120D01*
X150493673Y-94652120D01*
X150493673Y-95954120D01*
X150493673Y-95954120D01*
G37*
G36*
X134150200Y-95303800D02*
X132448200Y-95303800D01*
X132448200Y-93201800D01*
X134150200Y-93201800D01*
X134150200Y-95303800D01*
X134150200Y-95303800D01*
G37*
G36*
X150493673Y-94054120D02*
X149641673Y-94054120D01*
X149641673Y-92752120D01*
X150493673Y-92752120D01*
X150493673Y-94054120D01*
X150493673Y-94054120D01*
G37*
G36*
X154832600Y-92472000D02*
X153980600Y-92472000D01*
X153980600Y-91170000D01*
X154832600Y-91170000D01*
X154832600Y-92472000D01*
X154832600Y-92472000D01*
G37*
G36*
X134150200Y-91303800D02*
X132448200Y-91303800D01*
X132448200Y-89201800D01*
X134150200Y-89201800D01*
X134150200Y-91303800D01*
X134150200Y-91303800D01*
G37*
G36*
X156586400Y-90734800D02*
X155884400Y-90734800D01*
X155884400Y-89132800D01*
X156586400Y-89132800D01*
X156586400Y-90734800D01*
X156586400Y-90734800D01*
G37*
G36*
X162936400Y-90734800D02*
X162234400Y-90734800D01*
X162234400Y-89132800D01*
X162936400Y-89132800D01*
X162936400Y-90734800D01*
X162936400Y-90734800D01*
G37*
G36*
X157856400Y-90734800D02*
X157154400Y-90734800D01*
X157154400Y-89132800D01*
X157856400Y-89132800D01*
X157856400Y-90734800D01*
X157856400Y-90734800D01*
G37*
G36*
X159126400Y-90734800D02*
X158424400Y-90734800D01*
X158424400Y-89132800D01*
X159126400Y-89132800D01*
X159126400Y-90734800D01*
X159126400Y-90734800D01*
G37*
G36*
X164206400Y-90734800D02*
X163504400Y-90734800D01*
X163504400Y-89132800D01*
X164206400Y-89132800D01*
X164206400Y-90734800D01*
X164206400Y-90734800D01*
G37*
G36*
X161666400Y-90734800D02*
X160964400Y-90734800D01*
X160964400Y-89132800D01*
X161666400Y-89132800D01*
X161666400Y-90734800D01*
X161666400Y-90734800D01*
G37*
G36*
X160396400Y-90734800D02*
X159694400Y-90734800D01*
X159694400Y-89132800D01*
X160396400Y-89132800D01*
X160396400Y-90734800D01*
X160396400Y-90734800D01*
G37*
G36*
X139725273Y-90701520D02*
X139023273Y-90701520D01*
X139023273Y-89099520D01*
X139725273Y-89099520D01*
X139725273Y-90701520D01*
X139725273Y-90701520D01*
G37*
G36*
X146075273Y-90701520D02*
X145373273Y-90701520D01*
X145373273Y-89099520D01*
X146075273Y-89099520D01*
X146075273Y-90701520D01*
X146075273Y-90701520D01*
G37*
G36*
X148615273Y-90701520D02*
X147913273Y-90701520D01*
X147913273Y-89099520D01*
X148615273Y-89099520D01*
X148615273Y-90701520D01*
X148615273Y-90701520D01*
G37*
G36*
X144805273Y-90701520D02*
X144103273Y-90701520D01*
X144103273Y-89099520D01*
X144805273Y-89099520D01*
X144805273Y-90701520D01*
X144805273Y-90701520D01*
G37*
G36*
X143535273Y-90701520D02*
X142833273Y-90701520D01*
X142833273Y-89099520D01*
X143535273Y-89099520D01*
X143535273Y-90701520D01*
X143535273Y-90701520D01*
G37*
G36*
X142265273Y-90701520D02*
X141563273Y-90701520D01*
X141563273Y-89099520D01*
X142265273Y-89099520D01*
X142265273Y-90701520D01*
X142265273Y-90701520D01*
G37*
G36*
X140995273Y-90701520D02*
X140293273Y-90701520D01*
X140293273Y-89099520D01*
X140995273Y-89099520D01*
X140995273Y-90701520D01*
X140995273Y-90701520D01*
G37*
G36*
X147345273Y-90701520D02*
X146643273Y-90701520D01*
X146643273Y-89099520D01*
X147345273Y-89099520D01*
X147345273Y-90701520D01*
X147345273Y-90701520D01*
G37*
G36*
X181375256Y-87391298D02*
X181481579Y-87412447D01*
X181782042Y-87536903D01*
X182048852Y-87715180D01*
X182052454Y-87717587D01*
X182282413Y-87947546D01*
X182463098Y-88217960D01*
X182587553Y-88518422D01*
X182651000Y-88837389D01*
X182651000Y-89162611D01*
X182587553Y-89481578D01*
X182463098Y-89782040D01*
X182282413Y-90052454D01*
X182052454Y-90282413D01*
X182052451Y-90282415D01*
X181782042Y-90463097D01*
X181481579Y-90587553D01*
X181375256Y-90608702D01*
X181162611Y-90651000D01*
X180837389Y-90651000D01*
X180624744Y-90608702D01*
X180518421Y-90587553D01*
X180217958Y-90463097D01*
X179947549Y-90282415D01*
X179947546Y-90282413D01*
X179717587Y-90052454D01*
X179536902Y-89782040D01*
X179412447Y-89481578D01*
X179349000Y-89162611D01*
X179349000Y-88837389D01*
X179412447Y-88518422D01*
X179536902Y-88217960D01*
X179717587Y-87947546D01*
X179947546Y-87717587D01*
X179951148Y-87715180D01*
X180217958Y-87536903D01*
X180518421Y-87412447D01*
X180624744Y-87391298D01*
X180837389Y-87349000D01*
X181162611Y-87349000D01*
X181375256Y-87391298D01*
X181375256Y-87391298D01*
G37*
G36*
X127375256Y-87391298D02*
X127481579Y-87412447D01*
X127782042Y-87536903D01*
X128048852Y-87715180D01*
X128052454Y-87717587D01*
X128282413Y-87947546D01*
X128463098Y-88217960D01*
X128587553Y-88518422D01*
X128651000Y-88837389D01*
X128651000Y-89162611D01*
X128587553Y-89481578D01*
X128463098Y-89782040D01*
X128282413Y-90052454D01*
X128052454Y-90282413D01*
X128052451Y-90282415D01*
X127782042Y-90463097D01*
X127481579Y-90587553D01*
X127375256Y-90608702D01*
X127162611Y-90651000D01*
X126837389Y-90651000D01*
X126624744Y-90608702D01*
X126518421Y-90587553D01*
X126217958Y-90463097D01*
X125947549Y-90282415D01*
X125947546Y-90282413D01*
X125717587Y-90052454D01*
X125536902Y-89782040D01*
X125412447Y-89481578D01*
X125349000Y-89162611D01*
X125349000Y-88837389D01*
X125412447Y-88518422D01*
X125536902Y-88217960D01*
X125717587Y-87947546D01*
X125947546Y-87717587D01*
X125951148Y-87715180D01*
X126217958Y-87536903D01*
X126518421Y-87412447D01*
X126624744Y-87391298D01*
X126837389Y-87349000D01*
X127162611Y-87349000D01*
X127375256Y-87391298D01*
X127375256Y-87391298D01*
G37*
G36*
X154832600Y-90572000D02*
X153980600Y-90572000D01*
X153980600Y-89270000D01*
X154832600Y-89270000D01*
X154832600Y-90572000D01*
X154832600Y-90572000D01*
G37*
M02*
