G04 #@! TF.GenerationSoftware,KiCad,Pcbnew,5.0.1*
G04 #@! TF.CreationDate,2019-03-20T12:14:45+09:00*
G04 #@! TF.ProjectId,supersonic_bone_therapy_equipment,7375706572736F6E69635F626F6E655F,rev?*
G04 #@! TF.SameCoordinates,Original*
G04 #@! TF.FileFunction,Copper,L2,Bot,Signal*
G04 #@! TF.FilePolarity,Positive*
%FSLAX46Y46*%
G04 Gerber Fmt 4.6, Leading zero omitted, Abs format (unit mm)*
G04 Created by KiCad (PCBNEW 5.0.1) date 2019年03月20日 12時14分45秒*
%MOMM*%
%LPD*%
G01*
G04 APERTURE LIST*
G04 #@! TA.AperFunction,ComponentPad*
%ADD10C,2.000000*%
G04 #@! TD*
G04 #@! TA.AperFunction,ComponentPad*
%ADD11C,1.750000*%
G04 #@! TD*
G04 #@! TA.AperFunction,ComponentPad*
%ADD12R,1.750000X1.750000*%
G04 #@! TD*
G04 #@! TA.AperFunction,ComponentPad*
%ADD13O,1.800000X1.800000*%
G04 #@! TD*
G04 #@! TA.AperFunction,ComponentPad*
%ADD14R,1.800000X1.800000*%
G04 #@! TD*
G04 #@! TA.AperFunction,ViaPad*
%ADD15C,0.800000*%
G04 #@! TD*
G04 #@! TA.AperFunction,Conductor*
%ADD16C,0.250000*%
G04 #@! TD*
G04 #@! TA.AperFunction,Conductor*
%ADD17C,0.254000*%
G04 #@! TD*
G04 APERTURE END LIST*
D10*
G04 #@! TO.P,J1,2*
G04 #@! TO.N,GND*
X127000000Y-106700000D03*
X127000000Y-99300000D03*
G04 #@! TD*
D11*
G04 #@! TO.P,J2,2*
G04 #@! TO.N,+5V*
X181356000Y-102830000D03*
D12*
G04 #@! TO.P,J2,1*
G04 #@! TO.N,Net-(J2-Pad1)*
X181356000Y-100330000D03*
G04 #@! TD*
D13*
G04 #@! TO.P,Q1,3*
G04 #@! TO.N,GND*
X168579800Y-106807000D03*
G04 #@! TO.P,Q1,2*
G04 #@! TO.N,Net-(J2-Pad1)*
X168579800Y-104267000D03*
D14*
G04 #@! TO.P,Q1,1*
G04 #@! TO.N,Net-(Q1-Pad1)*
X168579800Y-101727000D03*
G04 #@! TD*
D15*
G04 #@! TO.N,GND*
X149008000Y-106934000D03*
X142018000Y-108590000D03*
X149638000Y-104526000D03*
X164878000Y-99700000D03*
X164878000Y-103764000D03*
X152516600Y-90556000D03*
X150146000Y-90556000D03*
X152940000Y-94366000D03*
X152940000Y-96652000D03*
G04 #@! TO.N,Net-(C2-Pad1)*
X149764000Y-108870000D03*
X145288000Y-108145000D03*
G04 #@! TO.N,+5V*
X152178000Y-88778000D03*
X151670000Y-94874000D03*
X132366000Y-100208000D03*
G04 #@! TO.N,Net-(RV1-Pad3)*
X143764000Y-110236000D03*
X143768653Y-108145000D03*
X147116800Y-100965000D03*
X149809200Y-100965000D03*
G04 #@! TD*
D16*
G04 #@! TO.N,GND*
X148442315Y-106934000D02*
X148320315Y-106812000D01*
X149008000Y-106934000D02*
X148442315Y-106934000D01*
X148320315Y-106812000D02*
X143288000Y-106812000D01*
X143288000Y-106812000D02*
X142526000Y-107574000D01*
X142526000Y-107574000D02*
X142526000Y-108082000D01*
X142526000Y-108082000D02*
X142018000Y-108590000D01*
X149008000Y-106368315D02*
X149638000Y-105738315D01*
X149008000Y-106934000D02*
X149008000Y-106368315D01*
X149638000Y-105738315D02*
X149638000Y-104526000D01*
X164878000Y-99700000D02*
X164878000Y-103764000D01*
X152516600Y-90556000D02*
X150146000Y-90556000D01*
X152940000Y-94366000D02*
X152940000Y-96652000D01*
G04 #@! TO.N,Net-(C2-Pad1)*
X149764000Y-108870000D02*
X148940000Y-108870000D01*
X148940000Y-108870000D02*
X147828000Y-109982000D01*
X147828000Y-109982000D02*
X145034000Y-109982000D01*
X145034000Y-109982000D02*
X145034000Y-108458000D01*
X145034000Y-108458000D02*
X145288000Y-108204000D01*
X145288000Y-108204000D02*
X145288000Y-108145000D01*
G04 #@! TO.N,Net-(RV1-Pad3)*
X143764000Y-108204000D02*
X143764000Y-108149653D01*
X143764000Y-108149653D02*
X143768653Y-108145000D01*
X143764000Y-110236000D02*
X143768653Y-108145000D01*
X147116800Y-100965000D02*
X149809200Y-100965000D01*
G04 #@! TD*
D17*
G04 #@! TO.N,+5V*
G36*
X179105259Y-87733974D02*
X178765000Y-88555431D01*
X178765000Y-89444569D01*
X179105259Y-90266026D01*
X179733974Y-90894741D01*
X180555431Y-91235000D01*
X181444569Y-91235000D01*
X182266026Y-90894741D01*
X182290000Y-90870767D01*
X182290000Y-98819296D01*
X182231000Y-98807560D01*
X180481000Y-98807560D01*
X180233235Y-98856843D01*
X180023191Y-98997191D01*
X179882843Y-99207235D01*
X179833560Y-99455000D01*
X179833560Y-101205000D01*
X179882843Y-101452765D01*
X180023191Y-101662809D01*
X180218745Y-101793475D01*
X180179306Y-101832914D01*
X180293938Y-101947546D01*
X180040047Y-102030884D01*
X179834410Y-102595306D01*
X179860421Y-103195458D01*
X180040047Y-103629116D01*
X180293940Y-103712455D01*
X181176395Y-102830000D01*
X181162253Y-102815858D01*
X181341858Y-102636253D01*
X181356000Y-102650395D01*
X181370143Y-102636253D01*
X181549748Y-102815858D01*
X181535605Y-102830000D01*
X181549748Y-102844143D01*
X181370143Y-103023748D01*
X181356000Y-103009605D01*
X180473545Y-103892060D01*
X180556884Y-104145953D01*
X181121306Y-104351590D01*
X181721458Y-104325579D01*
X182155116Y-104145953D01*
X182238454Y-103892062D01*
X182290001Y-103943609D01*
X182290001Y-110129234D01*
X182266026Y-110105259D01*
X181444569Y-109765000D01*
X180555431Y-109765000D01*
X179733974Y-110105259D01*
X179105259Y-110733974D01*
X178765000Y-111555431D01*
X178765000Y-112444569D01*
X179105259Y-113266026D01*
X179129233Y-113290000D01*
X128870767Y-113290000D01*
X128894741Y-113266026D01*
X129235000Y-112444569D01*
X129235000Y-111555431D01*
X128894741Y-110733974D01*
X128266026Y-110105259D01*
X127444569Y-109765000D01*
X126555431Y-109765000D01*
X125733974Y-110105259D01*
X125710000Y-110129233D01*
X125710000Y-108384126D01*
X140983000Y-108384126D01*
X140983000Y-108795874D01*
X141140569Y-109176280D01*
X141431720Y-109467431D01*
X141812126Y-109625000D01*
X142223874Y-109625000D01*
X142604280Y-109467431D01*
X142895431Y-109176280D01*
X143006956Y-108907034D01*
X143005568Y-109530721D01*
X142886569Y-109649720D01*
X142729000Y-110030126D01*
X142729000Y-110441874D01*
X142886569Y-110822280D01*
X143177720Y-111113431D01*
X143558126Y-111271000D01*
X143969874Y-111271000D01*
X144350280Y-111113431D01*
X144641431Y-110822280D01*
X144702599Y-110674608D01*
X144737463Y-110697904D01*
X145034000Y-110756889D01*
X145108852Y-110742000D01*
X147753153Y-110742000D01*
X147828000Y-110756888D01*
X147902847Y-110742000D01*
X147902852Y-110742000D01*
X148124537Y-110697904D01*
X148375929Y-110529929D01*
X148418331Y-110466471D01*
X149157546Y-109727257D01*
X149177720Y-109747431D01*
X149558126Y-109905000D01*
X149969874Y-109905000D01*
X150350280Y-109747431D01*
X150641431Y-109456280D01*
X150799000Y-109075874D01*
X150799000Y-108664126D01*
X150641431Y-108283720D01*
X150350280Y-107992569D01*
X149969874Y-107835000D01*
X149558126Y-107835000D01*
X149177720Y-107992569D01*
X149060289Y-108110000D01*
X149014846Y-108110000D01*
X148939999Y-108095112D01*
X148865152Y-108110000D01*
X148865148Y-108110000D01*
X148643463Y-108154096D01*
X148580902Y-108195898D01*
X148455526Y-108279671D01*
X148455524Y-108279673D01*
X148392071Y-108322071D01*
X148349673Y-108385525D01*
X147513199Y-109222000D01*
X145794000Y-109222000D01*
X145794000Y-109055684D01*
X145874280Y-109022431D01*
X146165431Y-108731280D01*
X146323000Y-108350874D01*
X146323000Y-107939126D01*
X146170932Y-107572000D01*
X148029187Y-107572000D01*
X148145778Y-107649904D01*
X148288603Y-107678314D01*
X148421720Y-107811431D01*
X148802126Y-107969000D01*
X149213874Y-107969000D01*
X149594280Y-107811431D01*
X149885431Y-107520280D01*
X150043000Y-107139874D01*
X150043000Y-106728126D01*
X149949272Y-106501845D01*
X150122473Y-106328644D01*
X150185929Y-106286244D01*
X150353904Y-106034852D01*
X150398000Y-105813167D01*
X150398000Y-105813163D01*
X150412888Y-105738315D01*
X150398000Y-105663467D01*
X150398000Y-105229711D01*
X150515431Y-105112280D01*
X150673000Y-104731874D01*
X150673000Y-104320126D01*
X150515431Y-103939720D01*
X150224280Y-103648569D01*
X149843874Y-103491000D01*
X149432126Y-103491000D01*
X149051720Y-103648569D01*
X148760569Y-103939720D01*
X148603000Y-104320126D01*
X148603000Y-104731874D01*
X148760569Y-105112280D01*
X148878000Y-105229711D01*
X148878000Y-105423513D01*
X148523528Y-105777986D01*
X148460072Y-105820386D01*
X148314484Y-106038272D01*
X148245468Y-106052000D01*
X143362848Y-106052000D01*
X143288000Y-106037112D01*
X143213152Y-106052000D01*
X143213148Y-106052000D01*
X143039605Y-106086520D01*
X142991462Y-106096096D01*
X142823878Y-106208073D01*
X142740071Y-106264071D01*
X142697671Y-106327527D01*
X142041530Y-106983669D01*
X141978071Y-107026071D01*
X141810096Y-107277464D01*
X141766000Y-107499149D01*
X141766000Y-107499153D01*
X141751112Y-107574000D01*
X141752265Y-107579795D01*
X141431720Y-107712569D01*
X141140569Y-108003720D01*
X140983000Y-108384126D01*
X125710000Y-108384126D01*
X125710000Y-107722239D01*
X126073847Y-108086086D01*
X126674778Y-108335000D01*
X127325222Y-108335000D01*
X127926153Y-108086086D01*
X128386086Y-107626153D01*
X128635000Y-107025222D01*
X128635000Y-106374778D01*
X128386086Y-105773847D01*
X127926153Y-105313914D01*
X127325222Y-105065000D01*
X126674778Y-105065000D01*
X126073847Y-105313914D01*
X125710000Y-105677761D01*
X125710000Y-100322239D01*
X126073847Y-100686086D01*
X126674778Y-100935000D01*
X127325222Y-100935000D01*
X127749819Y-100759126D01*
X146081800Y-100759126D01*
X146081800Y-101170874D01*
X146239369Y-101551280D01*
X146530520Y-101842431D01*
X146910926Y-102000000D01*
X147322674Y-102000000D01*
X147703080Y-101842431D01*
X147820511Y-101725000D01*
X149105489Y-101725000D01*
X149222920Y-101842431D01*
X149603326Y-102000000D01*
X150015074Y-102000000D01*
X150395480Y-101842431D01*
X150686631Y-101551280D01*
X150844200Y-101170874D01*
X150844200Y-100759126D01*
X150686631Y-100378720D01*
X150395480Y-100087569D01*
X150015074Y-99930000D01*
X149603326Y-99930000D01*
X149222920Y-100087569D01*
X149105489Y-100205000D01*
X147820511Y-100205000D01*
X147703080Y-100087569D01*
X147322674Y-99930000D01*
X146910926Y-99930000D01*
X146530520Y-100087569D01*
X146239369Y-100378720D01*
X146081800Y-100759126D01*
X127749819Y-100759126D01*
X127926153Y-100686086D01*
X128386086Y-100226153D01*
X128635000Y-99625222D01*
X128635000Y-99494126D01*
X163843000Y-99494126D01*
X163843000Y-99905874D01*
X164000569Y-100286280D01*
X164118000Y-100403711D01*
X164118001Y-103060288D01*
X164000569Y-103177720D01*
X163843000Y-103558126D01*
X163843000Y-103969874D01*
X164000569Y-104350280D01*
X164291720Y-104641431D01*
X164672126Y-104799000D01*
X165083874Y-104799000D01*
X165464280Y-104641431D01*
X165755431Y-104350280D01*
X165789926Y-104267000D01*
X167014728Y-104267000D01*
X167133862Y-104865927D01*
X167473127Y-105373673D01*
X167717563Y-105537000D01*
X167473127Y-105700327D01*
X167133862Y-106208073D01*
X167014728Y-106807000D01*
X167133862Y-107405927D01*
X167473127Y-107913673D01*
X167980873Y-108252938D01*
X168428618Y-108342000D01*
X168730982Y-108342000D01*
X169178727Y-108252938D01*
X169686473Y-107913673D01*
X170025738Y-107405927D01*
X170144872Y-106807000D01*
X170025738Y-106208073D01*
X169686473Y-105700327D01*
X169442037Y-105537000D01*
X169686473Y-105373673D01*
X170025738Y-104865927D01*
X170144872Y-104267000D01*
X170025738Y-103668073D01*
X169729104Y-103224129D01*
X169937609Y-103084809D01*
X170077957Y-102874765D01*
X170127240Y-102627000D01*
X170127240Y-100827000D01*
X170077957Y-100579235D01*
X169937609Y-100369191D01*
X169727565Y-100228843D01*
X169479800Y-100179560D01*
X167679800Y-100179560D01*
X167432035Y-100228843D01*
X167221991Y-100369191D01*
X167081643Y-100579235D01*
X167032360Y-100827000D01*
X167032360Y-102627000D01*
X167081643Y-102874765D01*
X167221991Y-103084809D01*
X167430496Y-103224129D01*
X167133862Y-103668073D01*
X167014728Y-104267000D01*
X165789926Y-104267000D01*
X165913000Y-103969874D01*
X165913000Y-103558126D01*
X165755431Y-103177720D01*
X165638000Y-103060289D01*
X165638000Y-100403711D01*
X165755431Y-100286280D01*
X165913000Y-99905874D01*
X165913000Y-99494126D01*
X165755431Y-99113720D01*
X165464280Y-98822569D01*
X165083874Y-98665000D01*
X164672126Y-98665000D01*
X164291720Y-98822569D01*
X164000569Y-99113720D01*
X163843000Y-99494126D01*
X128635000Y-99494126D01*
X128635000Y-98974778D01*
X128386086Y-98373847D01*
X127926153Y-97913914D01*
X127325222Y-97665000D01*
X126674778Y-97665000D01*
X126073847Y-97913914D01*
X125710000Y-98277761D01*
X125710000Y-94160126D01*
X151905000Y-94160126D01*
X151905000Y-94571874D01*
X152062569Y-94952280D01*
X152180000Y-95069711D01*
X152180001Y-95948288D01*
X152062569Y-96065720D01*
X151905000Y-96446126D01*
X151905000Y-96857874D01*
X152062569Y-97238280D01*
X152353720Y-97529431D01*
X152734126Y-97687000D01*
X153145874Y-97687000D01*
X153526280Y-97529431D01*
X153817431Y-97238280D01*
X153975000Y-96857874D01*
X153975000Y-96446126D01*
X153817431Y-96065720D01*
X153700000Y-95948289D01*
X153700000Y-95069711D01*
X153817431Y-94952280D01*
X153975000Y-94571874D01*
X153975000Y-94160126D01*
X153817431Y-93779720D01*
X153526280Y-93488569D01*
X153145874Y-93331000D01*
X152734126Y-93331000D01*
X152353720Y-93488569D01*
X152062569Y-93779720D01*
X151905000Y-94160126D01*
X125710000Y-94160126D01*
X125710000Y-90870767D01*
X125733974Y-90894741D01*
X126555431Y-91235000D01*
X127444569Y-91235000D01*
X128266026Y-90894741D01*
X128810641Y-90350126D01*
X149111000Y-90350126D01*
X149111000Y-90761874D01*
X149268569Y-91142280D01*
X149559720Y-91433431D01*
X149940126Y-91591000D01*
X150351874Y-91591000D01*
X150732280Y-91433431D01*
X150849711Y-91316000D01*
X151812889Y-91316000D01*
X151930320Y-91433431D01*
X152310726Y-91591000D01*
X152722474Y-91591000D01*
X153102880Y-91433431D01*
X153394031Y-91142280D01*
X153551600Y-90761874D01*
X153551600Y-90350126D01*
X153394031Y-89969720D01*
X153102880Y-89678569D01*
X152722474Y-89521000D01*
X152310726Y-89521000D01*
X151930320Y-89678569D01*
X151812889Y-89796000D01*
X150849711Y-89796000D01*
X150732280Y-89678569D01*
X150351874Y-89521000D01*
X149940126Y-89521000D01*
X149559720Y-89678569D01*
X149268569Y-89969720D01*
X149111000Y-90350126D01*
X128810641Y-90350126D01*
X128894741Y-90266026D01*
X129235000Y-89444569D01*
X129235000Y-88555431D01*
X128894741Y-87733974D01*
X128870767Y-87710000D01*
X179129233Y-87710000D01*
X179105259Y-87733974D01*
X179105259Y-87733974D01*
G37*
X179105259Y-87733974D02*
X178765000Y-88555431D01*
X178765000Y-89444569D01*
X179105259Y-90266026D01*
X179733974Y-90894741D01*
X180555431Y-91235000D01*
X181444569Y-91235000D01*
X182266026Y-90894741D01*
X182290000Y-90870767D01*
X182290000Y-98819296D01*
X182231000Y-98807560D01*
X180481000Y-98807560D01*
X180233235Y-98856843D01*
X180023191Y-98997191D01*
X179882843Y-99207235D01*
X179833560Y-99455000D01*
X179833560Y-101205000D01*
X179882843Y-101452765D01*
X180023191Y-101662809D01*
X180218745Y-101793475D01*
X180179306Y-101832914D01*
X180293938Y-101947546D01*
X180040047Y-102030884D01*
X179834410Y-102595306D01*
X179860421Y-103195458D01*
X180040047Y-103629116D01*
X180293940Y-103712455D01*
X181176395Y-102830000D01*
X181162253Y-102815858D01*
X181341858Y-102636253D01*
X181356000Y-102650395D01*
X181370143Y-102636253D01*
X181549748Y-102815858D01*
X181535605Y-102830000D01*
X181549748Y-102844143D01*
X181370143Y-103023748D01*
X181356000Y-103009605D01*
X180473545Y-103892060D01*
X180556884Y-104145953D01*
X181121306Y-104351590D01*
X181721458Y-104325579D01*
X182155116Y-104145953D01*
X182238454Y-103892062D01*
X182290001Y-103943609D01*
X182290001Y-110129234D01*
X182266026Y-110105259D01*
X181444569Y-109765000D01*
X180555431Y-109765000D01*
X179733974Y-110105259D01*
X179105259Y-110733974D01*
X178765000Y-111555431D01*
X178765000Y-112444569D01*
X179105259Y-113266026D01*
X179129233Y-113290000D01*
X128870767Y-113290000D01*
X128894741Y-113266026D01*
X129235000Y-112444569D01*
X129235000Y-111555431D01*
X128894741Y-110733974D01*
X128266026Y-110105259D01*
X127444569Y-109765000D01*
X126555431Y-109765000D01*
X125733974Y-110105259D01*
X125710000Y-110129233D01*
X125710000Y-108384126D01*
X140983000Y-108384126D01*
X140983000Y-108795874D01*
X141140569Y-109176280D01*
X141431720Y-109467431D01*
X141812126Y-109625000D01*
X142223874Y-109625000D01*
X142604280Y-109467431D01*
X142895431Y-109176280D01*
X143006956Y-108907034D01*
X143005568Y-109530721D01*
X142886569Y-109649720D01*
X142729000Y-110030126D01*
X142729000Y-110441874D01*
X142886569Y-110822280D01*
X143177720Y-111113431D01*
X143558126Y-111271000D01*
X143969874Y-111271000D01*
X144350280Y-111113431D01*
X144641431Y-110822280D01*
X144702599Y-110674608D01*
X144737463Y-110697904D01*
X145034000Y-110756889D01*
X145108852Y-110742000D01*
X147753153Y-110742000D01*
X147828000Y-110756888D01*
X147902847Y-110742000D01*
X147902852Y-110742000D01*
X148124537Y-110697904D01*
X148375929Y-110529929D01*
X148418331Y-110466471D01*
X149157546Y-109727257D01*
X149177720Y-109747431D01*
X149558126Y-109905000D01*
X149969874Y-109905000D01*
X150350280Y-109747431D01*
X150641431Y-109456280D01*
X150799000Y-109075874D01*
X150799000Y-108664126D01*
X150641431Y-108283720D01*
X150350280Y-107992569D01*
X149969874Y-107835000D01*
X149558126Y-107835000D01*
X149177720Y-107992569D01*
X149060289Y-108110000D01*
X149014846Y-108110000D01*
X148939999Y-108095112D01*
X148865152Y-108110000D01*
X148865148Y-108110000D01*
X148643463Y-108154096D01*
X148580902Y-108195898D01*
X148455526Y-108279671D01*
X148455524Y-108279673D01*
X148392071Y-108322071D01*
X148349673Y-108385525D01*
X147513199Y-109222000D01*
X145794000Y-109222000D01*
X145794000Y-109055684D01*
X145874280Y-109022431D01*
X146165431Y-108731280D01*
X146323000Y-108350874D01*
X146323000Y-107939126D01*
X146170932Y-107572000D01*
X148029187Y-107572000D01*
X148145778Y-107649904D01*
X148288603Y-107678314D01*
X148421720Y-107811431D01*
X148802126Y-107969000D01*
X149213874Y-107969000D01*
X149594280Y-107811431D01*
X149885431Y-107520280D01*
X150043000Y-107139874D01*
X150043000Y-106728126D01*
X149949272Y-106501845D01*
X150122473Y-106328644D01*
X150185929Y-106286244D01*
X150353904Y-106034852D01*
X150398000Y-105813167D01*
X150398000Y-105813163D01*
X150412888Y-105738315D01*
X150398000Y-105663467D01*
X150398000Y-105229711D01*
X150515431Y-105112280D01*
X150673000Y-104731874D01*
X150673000Y-104320126D01*
X150515431Y-103939720D01*
X150224280Y-103648569D01*
X149843874Y-103491000D01*
X149432126Y-103491000D01*
X149051720Y-103648569D01*
X148760569Y-103939720D01*
X148603000Y-104320126D01*
X148603000Y-104731874D01*
X148760569Y-105112280D01*
X148878000Y-105229711D01*
X148878000Y-105423513D01*
X148523528Y-105777986D01*
X148460072Y-105820386D01*
X148314484Y-106038272D01*
X148245468Y-106052000D01*
X143362848Y-106052000D01*
X143288000Y-106037112D01*
X143213152Y-106052000D01*
X143213148Y-106052000D01*
X143039605Y-106086520D01*
X142991462Y-106096096D01*
X142823878Y-106208073D01*
X142740071Y-106264071D01*
X142697671Y-106327527D01*
X142041530Y-106983669D01*
X141978071Y-107026071D01*
X141810096Y-107277464D01*
X141766000Y-107499149D01*
X141766000Y-107499153D01*
X141751112Y-107574000D01*
X141752265Y-107579795D01*
X141431720Y-107712569D01*
X141140569Y-108003720D01*
X140983000Y-108384126D01*
X125710000Y-108384126D01*
X125710000Y-107722239D01*
X126073847Y-108086086D01*
X126674778Y-108335000D01*
X127325222Y-108335000D01*
X127926153Y-108086086D01*
X128386086Y-107626153D01*
X128635000Y-107025222D01*
X128635000Y-106374778D01*
X128386086Y-105773847D01*
X127926153Y-105313914D01*
X127325222Y-105065000D01*
X126674778Y-105065000D01*
X126073847Y-105313914D01*
X125710000Y-105677761D01*
X125710000Y-100322239D01*
X126073847Y-100686086D01*
X126674778Y-100935000D01*
X127325222Y-100935000D01*
X127749819Y-100759126D01*
X146081800Y-100759126D01*
X146081800Y-101170874D01*
X146239369Y-101551280D01*
X146530520Y-101842431D01*
X146910926Y-102000000D01*
X147322674Y-102000000D01*
X147703080Y-101842431D01*
X147820511Y-101725000D01*
X149105489Y-101725000D01*
X149222920Y-101842431D01*
X149603326Y-102000000D01*
X150015074Y-102000000D01*
X150395480Y-101842431D01*
X150686631Y-101551280D01*
X150844200Y-101170874D01*
X150844200Y-100759126D01*
X150686631Y-100378720D01*
X150395480Y-100087569D01*
X150015074Y-99930000D01*
X149603326Y-99930000D01*
X149222920Y-100087569D01*
X149105489Y-100205000D01*
X147820511Y-100205000D01*
X147703080Y-100087569D01*
X147322674Y-99930000D01*
X146910926Y-99930000D01*
X146530520Y-100087569D01*
X146239369Y-100378720D01*
X146081800Y-100759126D01*
X127749819Y-100759126D01*
X127926153Y-100686086D01*
X128386086Y-100226153D01*
X128635000Y-99625222D01*
X128635000Y-99494126D01*
X163843000Y-99494126D01*
X163843000Y-99905874D01*
X164000569Y-100286280D01*
X164118000Y-100403711D01*
X164118001Y-103060288D01*
X164000569Y-103177720D01*
X163843000Y-103558126D01*
X163843000Y-103969874D01*
X164000569Y-104350280D01*
X164291720Y-104641431D01*
X164672126Y-104799000D01*
X165083874Y-104799000D01*
X165464280Y-104641431D01*
X165755431Y-104350280D01*
X165789926Y-104267000D01*
X167014728Y-104267000D01*
X167133862Y-104865927D01*
X167473127Y-105373673D01*
X167717563Y-105537000D01*
X167473127Y-105700327D01*
X167133862Y-106208073D01*
X167014728Y-106807000D01*
X167133862Y-107405927D01*
X167473127Y-107913673D01*
X167980873Y-108252938D01*
X168428618Y-108342000D01*
X168730982Y-108342000D01*
X169178727Y-108252938D01*
X169686473Y-107913673D01*
X170025738Y-107405927D01*
X170144872Y-106807000D01*
X170025738Y-106208073D01*
X169686473Y-105700327D01*
X169442037Y-105537000D01*
X169686473Y-105373673D01*
X170025738Y-104865927D01*
X170144872Y-104267000D01*
X170025738Y-103668073D01*
X169729104Y-103224129D01*
X169937609Y-103084809D01*
X170077957Y-102874765D01*
X170127240Y-102627000D01*
X170127240Y-100827000D01*
X170077957Y-100579235D01*
X169937609Y-100369191D01*
X169727565Y-100228843D01*
X169479800Y-100179560D01*
X167679800Y-100179560D01*
X167432035Y-100228843D01*
X167221991Y-100369191D01*
X167081643Y-100579235D01*
X167032360Y-100827000D01*
X167032360Y-102627000D01*
X167081643Y-102874765D01*
X167221991Y-103084809D01*
X167430496Y-103224129D01*
X167133862Y-103668073D01*
X167014728Y-104267000D01*
X165789926Y-104267000D01*
X165913000Y-103969874D01*
X165913000Y-103558126D01*
X165755431Y-103177720D01*
X165638000Y-103060289D01*
X165638000Y-100403711D01*
X165755431Y-100286280D01*
X165913000Y-99905874D01*
X165913000Y-99494126D01*
X165755431Y-99113720D01*
X165464280Y-98822569D01*
X165083874Y-98665000D01*
X164672126Y-98665000D01*
X164291720Y-98822569D01*
X164000569Y-99113720D01*
X163843000Y-99494126D01*
X128635000Y-99494126D01*
X128635000Y-98974778D01*
X128386086Y-98373847D01*
X127926153Y-97913914D01*
X127325222Y-97665000D01*
X126674778Y-97665000D01*
X126073847Y-97913914D01*
X125710000Y-98277761D01*
X125710000Y-94160126D01*
X151905000Y-94160126D01*
X151905000Y-94571874D01*
X152062569Y-94952280D01*
X152180000Y-95069711D01*
X152180001Y-95948288D01*
X152062569Y-96065720D01*
X151905000Y-96446126D01*
X151905000Y-96857874D01*
X152062569Y-97238280D01*
X152353720Y-97529431D01*
X152734126Y-97687000D01*
X153145874Y-97687000D01*
X153526280Y-97529431D01*
X153817431Y-97238280D01*
X153975000Y-96857874D01*
X153975000Y-96446126D01*
X153817431Y-96065720D01*
X153700000Y-95948289D01*
X153700000Y-95069711D01*
X153817431Y-94952280D01*
X153975000Y-94571874D01*
X153975000Y-94160126D01*
X153817431Y-93779720D01*
X153526280Y-93488569D01*
X153145874Y-93331000D01*
X152734126Y-93331000D01*
X152353720Y-93488569D01*
X152062569Y-93779720D01*
X151905000Y-94160126D01*
X125710000Y-94160126D01*
X125710000Y-90870767D01*
X125733974Y-90894741D01*
X126555431Y-91235000D01*
X127444569Y-91235000D01*
X128266026Y-90894741D01*
X128810641Y-90350126D01*
X149111000Y-90350126D01*
X149111000Y-90761874D01*
X149268569Y-91142280D01*
X149559720Y-91433431D01*
X149940126Y-91591000D01*
X150351874Y-91591000D01*
X150732280Y-91433431D01*
X150849711Y-91316000D01*
X151812889Y-91316000D01*
X151930320Y-91433431D01*
X152310726Y-91591000D01*
X152722474Y-91591000D01*
X153102880Y-91433431D01*
X153394031Y-91142280D01*
X153551600Y-90761874D01*
X153551600Y-90350126D01*
X153394031Y-89969720D01*
X153102880Y-89678569D01*
X152722474Y-89521000D01*
X152310726Y-89521000D01*
X151930320Y-89678569D01*
X151812889Y-89796000D01*
X150849711Y-89796000D01*
X150732280Y-89678569D01*
X150351874Y-89521000D01*
X149940126Y-89521000D01*
X149559720Y-89678569D01*
X149268569Y-89969720D01*
X149111000Y-90350126D01*
X128810641Y-90350126D01*
X128894741Y-90266026D01*
X129235000Y-89444569D01*
X129235000Y-88555431D01*
X128894741Y-87733974D01*
X128870767Y-87710000D01*
X179129233Y-87710000D01*
X179105259Y-87733974D01*
G04 #@! TD*
M02*
