M48
;DRILL file {KiCad 5.0.1} date 2019年03月20日 12時14分49秒
;FORMAT={-:-/ absolute / metric / decimal}
FMAT,2
METRIC,TZ
T1C0.400
T2C1.000
T3C1.050
T4C1.400
%
G90
G05
M71
T1
X132.366Y-100.208
X142.018Y-108.59
X143.764Y-110.236
X143.769Y-108.145
X145.288Y-108.145
X147.117Y-100.965
X149.008Y-106.934
X149.638Y-104.526
X149.764Y-108.87
X149.809Y-100.965
X150.146Y-90.556
X151.67Y-94.874
X152.178Y-88.778
X152.517Y-90.556
X152.94Y-94.366
X152.94Y-96.652
X164.878Y-99.7
X164.878Y-103.764
T2
X168.58Y-101.727
X168.58Y-104.267
X168.58Y-106.807
T3
X181.356Y-100.33
X181.356Y-102.83
T4
X127.Y-99.3
X127.Y-106.7
T0
M30
