G04 #@! TF.GenerationSoftware,KiCad,Pcbnew,5.0.1*
G04 #@! TF.CreationDate,2019-03-20T12:14:45+09:00*
G04 #@! TF.ProjectId,supersonic_bone_therapy_equipment,7375706572736F6E69635F626F6E655F,rev?*
G04 #@! TF.SameCoordinates,Original*
G04 #@! TF.FileFunction,Legend,Top*
G04 #@! TF.FilePolarity,Positive*
%FSLAX46Y46*%
G04 Gerber Fmt 4.6, Leading zero omitted, Abs format (unit mm)*
G04 Created by KiCad (PCBNEW 5.0.1) date 2019年03月20日 12時14分45秒*
%MOMM*%
%LPD*%
G01*
G04 APERTURE LIST*
%ADD10C,0.120000*%
%ADD11C,0.150000*%
G04 APERTURE END LIST*
D10*
G04 #@! TO.C,C1*
X140746000Y-107534000D02*
X140046000Y-107534000D01*
X140046000Y-106334000D02*
X140746000Y-106334000D01*
G04 #@! TO.C,C2*
X146020000Y-106334000D02*
X146720000Y-106334000D01*
X146720000Y-107534000D02*
X146020000Y-107534000D01*
G04 #@! TO.C,C3*
X134319200Y-93252800D02*
X134319200Y-91252800D01*
X132279200Y-91252800D02*
X132279200Y-93252800D01*
G04 #@! TO.C,C4*
X137169600Y-100085600D02*
X137169600Y-99385600D01*
X138369600Y-99385600D02*
X138369600Y-100085600D01*
G04 #@! TO.C,C5*
X155006600Y-90521000D02*
X155006600Y-91221000D01*
X153806600Y-91221000D02*
X153806600Y-90521000D01*
D11*
G04 #@! TO.C,J1*
X134000000Y-103000000D02*
X134000000Y-99350000D01*
X134000000Y-103000000D02*
X134000000Y-106650000D01*
X134000000Y-106650000D02*
X125850000Y-106650000D01*
X125850000Y-106650000D02*
X125850000Y-99340000D01*
X125850000Y-99340000D02*
X134000000Y-99340000D01*
D10*
G04 #@! TO.C,J2*
X184106000Y-97480000D02*
X181606000Y-97480000D01*
X184106000Y-99980000D02*
X184106000Y-97480000D01*
X178606000Y-104630000D02*
X178606000Y-101580000D01*
X181556000Y-104630000D02*
X178606000Y-104630000D01*
X181556000Y-105380000D02*
X181556000Y-104630000D01*
X178606000Y-98530000D02*
X178606000Y-101580000D01*
X181556000Y-98530000D02*
X178606000Y-98530000D01*
X181556000Y-97780000D02*
X181556000Y-98530000D01*
X183806000Y-105380000D02*
X183806000Y-103580000D01*
X183056000Y-105380000D02*
X183806000Y-105380000D01*
X183056000Y-103580000D02*
X183056000Y-105380000D01*
X183806000Y-103580000D02*
X183056000Y-103580000D01*
X183806000Y-99580000D02*
X183806000Y-97780000D01*
X183056000Y-99580000D02*
X183806000Y-99580000D01*
X183056000Y-97780000D02*
X183056000Y-99580000D01*
X183806000Y-97780000D02*
X183056000Y-97780000D01*
X183806000Y-102080000D02*
X183806000Y-101080000D01*
X183056000Y-102080000D02*
X183806000Y-102080000D01*
X183056000Y-101080000D02*
X183056000Y-102080000D01*
X183806000Y-101080000D02*
X183056000Y-101080000D01*
X183806000Y-105380000D02*
X183806000Y-97780000D01*
X177856000Y-105380000D02*
X183806000Y-105380000D01*
X177856000Y-97780000D02*
X177856000Y-105380000D01*
X183806000Y-97780000D02*
X177856000Y-97780000D01*
G04 #@! TO.C,Q1*
X171199800Y-106118000D02*
X169689800Y-106118000D01*
X171199800Y-102417000D02*
X169689800Y-102417000D01*
X169689800Y-99147000D02*
X169689800Y-109387000D01*
X171199800Y-109387000D02*
X166558800Y-109387000D01*
X171199800Y-99147000D02*
X166558800Y-99147000D01*
X166558800Y-99147000D02*
X166558800Y-109387000D01*
X171199800Y-99147000D02*
X171199800Y-109387000D01*
G04 #@! TO.C,R3*
X161985400Y-98800200D02*
X160985400Y-98800200D01*
X160985400Y-97440200D02*
X161985400Y-97440200D01*
G04 #@! TO.C,R5*
X160967800Y-101072400D02*
X161967800Y-101072400D01*
X161967800Y-102432400D02*
X160967800Y-102432400D01*
G04 #@! TO.C,RV1*
X145032000Y-111020000D02*
X145032000Y-108740000D01*
X145032000Y-108740000D02*
X145542000Y-108740000D01*
X148082000Y-108740000D02*
X148592000Y-108740000D01*
X148592000Y-108740000D02*
X148592000Y-111020000D01*
G04 #@! TO.C,RV2*
X154180000Y-108740000D02*
X154180000Y-111020000D01*
X153670000Y-108740000D02*
X154180000Y-108740000D01*
X150620000Y-108740000D02*
X151130000Y-108740000D01*
X150620000Y-111020000D02*
X150620000Y-108740000D01*
G04 #@! TO.C,RV3*
X156182600Y-110994600D02*
X156182600Y-108714600D01*
X156182600Y-108714600D02*
X156692600Y-108714600D01*
X159232600Y-108714600D02*
X159742600Y-108714600D01*
X159742600Y-108714600D02*
X159742600Y-110994600D01*
D11*
G04 #@! TO.C,U1*
X138831000Y-103581000D02*
X138831000Y-104956000D01*
X147706000Y-103581000D02*
X147706000Y-99431000D01*
X138806000Y-103581000D02*
X138806000Y-99431000D01*
X147706000Y-103581000D02*
X147591000Y-103581000D01*
X147706000Y-99431000D02*
X147591000Y-99431000D01*
X138806000Y-99431000D02*
X138921000Y-99431000D01*
X138806000Y-103581000D02*
X138831000Y-103581000D01*
G04 #@! TO.C,U2*
X148869273Y-90525520D02*
X148869273Y-89150520D01*
X138744273Y-90525520D02*
X138744273Y-94675520D01*
X148894273Y-90525520D02*
X148894273Y-94675520D01*
X138744273Y-90525520D02*
X138849273Y-90525520D01*
X138744273Y-94675520D02*
X138849273Y-94675520D01*
X148894273Y-94675520D02*
X148789273Y-94675520D01*
X148894273Y-90525520D02*
X148869273Y-90525520D01*
G04 #@! TO.C,U3*
X155595400Y-94708800D02*
X155620400Y-94708800D01*
X155595400Y-90558800D02*
X155710400Y-90558800D01*
X164495400Y-90558800D02*
X164380400Y-90558800D01*
X164495400Y-94708800D02*
X164380400Y-94708800D01*
X155595400Y-94708800D02*
X155595400Y-90558800D01*
X164495400Y-94708800D02*
X164495400Y-90558800D01*
X155620400Y-94708800D02*
X155620400Y-96083800D01*
D10*
G04 #@! TO.C,C6*
X150667673Y-94003120D02*
X150667673Y-94703120D01*
X149467673Y-94703120D02*
X149467673Y-94003120D01*
G04 #@! TO.C,C1*
D11*
X137533333Y-107169142D02*
X137485714Y-107216761D01*
X137342857Y-107264380D01*
X137247619Y-107264380D01*
X137104761Y-107216761D01*
X137009523Y-107121523D01*
X136961904Y-107026285D01*
X136914285Y-106835809D01*
X136914285Y-106692952D01*
X136961904Y-106502476D01*
X137009523Y-106407238D01*
X137104761Y-106312000D01*
X137247619Y-106264380D01*
X137342857Y-106264380D01*
X137485714Y-106312000D01*
X137533333Y-106359619D01*
X138485714Y-107264380D02*
X137914285Y-107264380D01*
X138200000Y-107264380D02*
X138200000Y-106264380D01*
X138104761Y-106407238D01*
X138009523Y-106502476D01*
X137914285Y-106550095D01*
G04 #@! TO.C,C2*
X149471333Y-107169142D02*
X149423714Y-107216761D01*
X149280857Y-107264380D01*
X149185619Y-107264380D01*
X149042761Y-107216761D01*
X148947523Y-107121523D01*
X148899904Y-107026285D01*
X148852285Y-106835809D01*
X148852285Y-106692952D01*
X148899904Y-106502476D01*
X148947523Y-106407238D01*
X149042761Y-106312000D01*
X149185619Y-106264380D01*
X149280857Y-106264380D01*
X149423714Y-106312000D01*
X149471333Y-106359619D01*
X149852285Y-106359619D02*
X149899904Y-106312000D01*
X149995142Y-106264380D01*
X150233238Y-106264380D01*
X150328476Y-106312000D01*
X150376095Y-106359619D01*
X150423714Y-106454857D01*
X150423714Y-106550095D01*
X150376095Y-106692952D01*
X149804666Y-107264380D01*
X150423714Y-107264380D01*
G04 #@! TO.C,C3*
X130675333Y-92691142D02*
X130627714Y-92738761D01*
X130484857Y-92786380D01*
X130389619Y-92786380D01*
X130246761Y-92738761D01*
X130151523Y-92643523D01*
X130103904Y-92548285D01*
X130056285Y-92357809D01*
X130056285Y-92214952D01*
X130103904Y-92024476D01*
X130151523Y-91929238D01*
X130246761Y-91834000D01*
X130389619Y-91786380D01*
X130484857Y-91786380D01*
X130627714Y-91834000D01*
X130675333Y-91881619D01*
X131008666Y-91786380D02*
X131627714Y-91786380D01*
X131294380Y-92167333D01*
X131437238Y-92167333D01*
X131532476Y-92214952D01*
X131580095Y-92262571D01*
X131627714Y-92357809D01*
X131627714Y-92595904D01*
X131580095Y-92691142D01*
X131532476Y-92738761D01*
X131437238Y-92786380D01*
X131151523Y-92786380D01*
X131056285Y-92738761D01*
X131008666Y-92691142D01*
G04 #@! TO.C,C4*
X135501333Y-100057142D02*
X135453714Y-100104761D01*
X135310857Y-100152380D01*
X135215619Y-100152380D01*
X135072761Y-100104761D01*
X134977523Y-100009523D01*
X134929904Y-99914285D01*
X134882285Y-99723809D01*
X134882285Y-99580952D01*
X134929904Y-99390476D01*
X134977523Y-99295238D01*
X135072761Y-99200000D01*
X135215619Y-99152380D01*
X135310857Y-99152380D01*
X135453714Y-99200000D01*
X135501333Y-99247619D01*
X136358476Y-99485714D02*
X136358476Y-100152380D01*
X136120380Y-99104761D02*
X135882285Y-99819047D01*
X136501333Y-99819047D01*
G04 #@! TO.C,C5*
X152519333Y-90151142D02*
X152471714Y-90198761D01*
X152328857Y-90246380D01*
X152233619Y-90246380D01*
X152090761Y-90198761D01*
X151995523Y-90103523D01*
X151947904Y-90008285D01*
X151900285Y-89817809D01*
X151900285Y-89674952D01*
X151947904Y-89484476D01*
X151995523Y-89389238D01*
X152090761Y-89294000D01*
X152233619Y-89246380D01*
X152328857Y-89246380D01*
X152471714Y-89294000D01*
X152519333Y-89341619D01*
X153424095Y-89246380D02*
X152947904Y-89246380D01*
X152900285Y-89722571D01*
X152947904Y-89674952D01*
X153043142Y-89627333D01*
X153281238Y-89627333D01*
X153376476Y-89674952D01*
X153424095Y-89722571D01*
X153471714Y-89817809D01*
X153471714Y-90055904D01*
X153424095Y-90151142D01*
X153376476Y-90198761D01*
X153281238Y-90246380D01*
X153043142Y-90246380D01*
X152947904Y-90198761D01*
X152900285Y-90151142D01*
G04 #@! TO.C,J1*
X131524666Y-107280380D02*
X131524666Y-107994666D01*
X131477047Y-108137523D01*
X131381809Y-108232761D01*
X131238952Y-108280380D01*
X131143714Y-108280380D01*
X132524666Y-108280380D02*
X131953238Y-108280380D01*
X132238952Y-108280380D02*
X132238952Y-107280380D01*
X132143714Y-107423238D01*
X132048476Y-107518476D01*
X131953238Y-107566095D01*
G04 #@! TO.C,J2*
X180546666Y-96612380D02*
X180546666Y-97326666D01*
X180499047Y-97469523D01*
X180403809Y-97564761D01*
X180260952Y-97612380D01*
X180165714Y-97612380D01*
X180975238Y-96707619D02*
X181022857Y-96660000D01*
X181118095Y-96612380D01*
X181356190Y-96612380D01*
X181451428Y-96660000D01*
X181499047Y-96707619D01*
X181546666Y-96802857D01*
X181546666Y-96898095D01*
X181499047Y-97040952D01*
X180927619Y-97612380D01*
X181546666Y-97612380D01*
G04 #@! TO.C,Q1*
X172104561Y-104814619D02*
X172009323Y-104767000D01*
X171914085Y-104671761D01*
X171771228Y-104528904D01*
X171675990Y-104481285D01*
X171580752Y-104481285D01*
X171628371Y-104719380D02*
X171533133Y-104671761D01*
X171437895Y-104576523D01*
X171390276Y-104386047D01*
X171390276Y-104052714D01*
X171437895Y-103862238D01*
X171533133Y-103767000D01*
X171628371Y-103719380D01*
X171818847Y-103719380D01*
X171914085Y-103767000D01*
X172009323Y-103862238D01*
X172056942Y-104052714D01*
X172056942Y-104386047D01*
X172009323Y-104576523D01*
X171914085Y-104671761D01*
X171818847Y-104719380D01*
X171628371Y-104719380D01*
X173009323Y-104719380D02*
X172437895Y-104719380D01*
X172723609Y-104719380D02*
X172723609Y-103719380D01*
X172628371Y-103862238D01*
X172533133Y-103957476D01*
X172437895Y-104005095D01*
G04 #@! TO.C,R3*
X161318733Y-100022580D02*
X160985400Y-99546390D01*
X160747304Y-100022580D02*
X160747304Y-99022580D01*
X161128257Y-99022580D01*
X161223495Y-99070200D01*
X161271114Y-99117819D01*
X161318733Y-99213057D01*
X161318733Y-99355914D01*
X161271114Y-99451152D01*
X161223495Y-99498771D01*
X161128257Y-99546390D01*
X160747304Y-99546390D01*
X161652066Y-99022580D02*
X162271114Y-99022580D01*
X161937780Y-99403533D01*
X162080638Y-99403533D01*
X162175876Y-99451152D01*
X162223495Y-99498771D01*
X162271114Y-99594009D01*
X162271114Y-99832104D01*
X162223495Y-99927342D01*
X162175876Y-99974961D01*
X162080638Y-100022580D01*
X161794923Y-100022580D01*
X161699685Y-99974961D01*
X161652066Y-99927342D01*
G04 #@! TO.C,R5*
X161301133Y-103654780D02*
X160967800Y-103178590D01*
X160729704Y-103654780D02*
X160729704Y-102654780D01*
X161110657Y-102654780D01*
X161205895Y-102702400D01*
X161253514Y-102750019D01*
X161301133Y-102845257D01*
X161301133Y-102988114D01*
X161253514Y-103083352D01*
X161205895Y-103130971D01*
X161110657Y-103178590D01*
X160729704Y-103178590D01*
X162205895Y-102654780D02*
X161729704Y-102654780D01*
X161682085Y-103130971D01*
X161729704Y-103083352D01*
X161824942Y-103035733D01*
X162063038Y-103035733D01*
X162158276Y-103083352D01*
X162205895Y-103130971D01*
X162253514Y-103226209D01*
X162253514Y-103464304D01*
X162205895Y-103559542D01*
X162158276Y-103607161D01*
X162063038Y-103654780D01*
X161824942Y-103654780D01*
X161729704Y-103607161D01*
X161682085Y-103559542D01*
G04 #@! TO.C,RV1*
X142184761Y-112598380D02*
X141851428Y-112122190D01*
X141613333Y-112598380D02*
X141613333Y-111598380D01*
X141994285Y-111598380D01*
X142089523Y-111646000D01*
X142137142Y-111693619D01*
X142184761Y-111788857D01*
X142184761Y-111931714D01*
X142137142Y-112026952D01*
X142089523Y-112074571D01*
X141994285Y-112122190D01*
X141613333Y-112122190D01*
X142470476Y-111598380D02*
X142803809Y-112598380D01*
X143137142Y-111598380D01*
X143994285Y-112598380D02*
X143422857Y-112598380D01*
X143708571Y-112598380D02*
X143708571Y-111598380D01*
X143613333Y-111741238D01*
X143518095Y-111836476D01*
X143422857Y-111884095D01*
G04 #@! TO.C,RV2*
X151804761Y-107518380D02*
X151471428Y-107042190D01*
X151233333Y-107518380D02*
X151233333Y-106518380D01*
X151614285Y-106518380D01*
X151709523Y-106566000D01*
X151757142Y-106613619D01*
X151804761Y-106708857D01*
X151804761Y-106851714D01*
X151757142Y-106946952D01*
X151709523Y-106994571D01*
X151614285Y-107042190D01*
X151233333Y-107042190D01*
X152090476Y-106518380D02*
X152423809Y-107518380D01*
X152757142Y-106518380D01*
X153042857Y-106613619D02*
X153090476Y-106566000D01*
X153185714Y-106518380D01*
X153423809Y-106518380D01*
X153519047Y-106566000D01*
X153566666Y-106613619D01*
X153614285Y-106708857D01*
X153614285Y-106804095D01*
X153566666Y-106946952D01*
X152995238Y-107518380D01*
X153614285Y-107518380D01*
G04 #@! TO.C,RV3*
X157170761Y-107518380D02*
X156837428Y-107042190D01*
X156599333Y-107518380D02*
X156599333Y-106518380D01*
X156980285Y-106518380D01*
X157075523Y-106566000D01*
X157123142Y-106613619D01*
X157170761Y-106708857D01*
X157170761Y-106851714D01*
X157123142Y-106946952D01*
X157075523Y-106994571D01*
X156980285Y-107042190D01*
X156599333Y-107042190D01*
X157456476Y-106518380D02*
X157789809Y-107518380D01*
X158123142Y-106518380D01*
X158361238Y-106518380D02*
X158980285Y-106518380D01*
X158646952Y-106899333D01*
X158789809Y-106899333D01*
X158885047Y-106946952D01*
X158932666Y-106994571D01*
X158980285Y-107089809D01*
X158980285Y-107327904D01*
X158932666Y-107423142D01*
X158885047Y-107470761D01*
X158789809Y-107518380D01*
X158504095Y-107518380D01*
X158408857Y-107470761D01*
X158361238Y-107423142D01*
G04 #@! TO.C,U1*
X142272095Y-100930380D02*
X142272095Y-101739904D01*
X142319714Y-101835142D01*
X142367333Y-101882761D01*
X142462571Y-101930380D01*
X142653047Y-101930380D01*
X142748285Y-101882761D01*
X142795904Y-101835142D01*
X142843523Y-101739904D01*
X142843523Y-100930380D01*
X143843523Y-101930380D02*
X143272095Y-101930380D01*
X143557809Y-101930380D02*
X143557809Y-100930380D01*
X143462571Y-101073238D01*
X143367333Y-101168476D01*
X143272095Y-101216095D01*
G04 #@! TO.C,U2*
X143034095Y-91786380D02*
X143034095Y-92595904D01*
X143081714Y-92691142D01*
X143129333Y-92738761D01*
X143224571Y-92786380D01*
X143415047Y-92786380D01*
X143510285Y-92738761D01*
X143557904Y-92691142D01*
X143605523Y-92595904D01*
X143605523Y-91786380D01*
X144034095Y-91881619D02*
X144081714Y-91834000D01*
X144176952Y-91786380D01*
X144415047Y-91786380D01*
X144510285Y-91834000D01*
X144557904Y-91881619D01*
X144605523Y-91976857D01*
X144605523Y-92072095D01*
X144557904Y-92214952D01*
X143986476Y-92786380D01*
X144605523Y-92786380D01*
G04 #@! TO.C,U3*
X159036095Y-92040380D02*
X159036095Y-92849904D01*
X159083714Y-92945142D01*
X159131333Y-92992761D01*
X159226571Y-93040380D01*
X159417047Y-93040380D01*
X159512285Y-92992761D01*
X159559904Y-92945142D01*
X159607523Y-92849904D01*
X159607523Y-92040380D01*
X159988476Y-92040380D02*
X160607523Y-92040380D01*
X160274190Y-92421333D01*
X160417047Y-92421333D01*
X160512285Y-92468952D01*
X160559904Y-92516571D01*
X160607523Y-92611809D01*
X160607523Y-92849904D01*
X160559904Y-92945142D01*
X160512285Y-92992761D01*
X160417047Y-93040380D01*
X160131333Y-93040380D01*
X160036095Y-92992761D01*
X159988476Y-92945142D01*
G04 #@! TO.C,REF\002A\002A*
X125666666Y-85252380D02*
X125333333Y-84776190D01*
X125095238Y-85252380D02*
X125095238Y-84252380D01*
X125476190Y-84252380D01*
X125571428Y-84300000D01*
X125619047Y-84347619D01*
X125666666Y-84442857D01*
X125666666Y-84585714D01*
X125619047Y-84680952D01*
X125571428Y-84728571D01*
X125476190Y-84776190D01*
X125095238Y-84776190D01*
X126095238Y-84728571D02*
X126428571Y-84728571D01*
X126571428Y-85252380D02*
X126095238Y-85252380D01*
X126095238Y-84252380D01*
X126571428Y-84252380D01*
X127333333Y-84728571D02*
X127000000Y-84728571D01*
X127000000Y-85252380D02*
X127000000Y-84252380D01*
X127476190Y-84252380D01*
X128000000Y-84252380D02*
X128000000Y-84490476D01*
X127761904Y-84395238D02*
X128000000Y-84490476D01*
X128238095Y-84395238D01*
X127857142Y-84680952D02*
X128000000Y-84490476D01*
X128142857Y-84680952D01*
X128761904Y-84252380D02*
X128761904Y-84490476D01*
X128523809Y-84395238D02*
X128761904Y-84490476D01*
X129000000Y-84395238D01*
X128619047Y-84680952D02*
X128761904Y-84490476D01*
X128904761Y-84680952D01*
X118586666Y-110820380D02*
X118253333Y-110344190D01*
X118015238Y-110820380D02*
X118015238Y-109820380D01*
X118396190Y-109820380D01*
X118491428Y-109868000D01*
X118539047Y-109915619D01*
X118586666Y-110010857D01*
X118586666Y-110153714D01*
X118539047Y-110248952D01*
X118491428Y-110296571D01*
X118396190Y-110344190D01*
X118015238Y-110344190D01*
X119015238Y-110296571D02*
X119348571Y-110296571D01*
X119491428Y-110820380D02*
X119015238Y-110820380D01*
X119015238Y-109820380D01*
X119491428Y-109820380D01*
X120253333Y-110296571D02*
X119920000Y-110296571D01*
X119920000Y-110820380D02*
X119920000Y-109820380D01*
X120396190Y-109820380D01*
X120920000Y-109820380D02*
X120920000Y-110058476D01*
X120681904Y-109963238D02*
X120920000Y-110058476D01*
X121158095Y-109963238D01*
X120777142Y-110248952D02*
X120920000Y-110058476D01*
X121062857Y-110248952D01*
X121681904Y-109820380D02*
X121681904Y-110058476D01*
X121443809Y-109963238D02*
X121681904Y-110058476D01*
X121920000Y-109963238D01*
X121539047Y-110248952D02*
X121681904Y-110058476D01*
X121824761Y-110248952D01*
X187420666Y-111836380D02*
X187087333Y-111360190D01*
X186849238Y-111836380D02*
X186849238Y-110836380D01*
X187230190Y-110836380D01*
X187325428Y-110884000D01*
X187373047Y-110931619D01*
X187420666Y-111026857D01*
X187420666Y-111169714D01*
X187373047Y-111264952D01*
X187325428Y-111312571D01*
X187230190Y-111360190D01*
X186849238Y-111360190D01*
X187849238Y-111312571D02*
X188182571Y-111312571D01*
X188325428Y-111836380D02*
X187849238Y-111836380D01*
X187849238Y-110836380D01*
X188325428Y-110836380D01*
X189087333Y-111312571D02*
X188754000Y-111312571D01*
X188754000Y-111836380D02*
X188754000Y-110836380D01*
X189230190Y-110836380D01*
X189754000Y-110836380D02*
X189754000Y-111074476D01*
X189515904Y-110979238D02*
X189754000Y-111074476D01*
X189992095Y-110979238D01*
X189611142Y-111264952D02*
X189754000Y-111074476D01*
X189896857Y-111264952D01*
X190515904Y-110836380D02*
X190515904Y-111074476D01*
X190277809Y-110979238D02*
X190515904Y-111074476D01*
X190754000Y-110979238D01*
X190373047Y-111264952D02*
X190515904Y-111074476D01*
X190658761Y-111264952D01*
X179666666Y-85252380D02*
X179333333Y-84776190D01*
X179095238Y-85252380D02*
X179095238Y-84252380D01*
X179476190Y-84252380D01*
X179571428Y-84300000D01*
X179619047Y-84347619D01*
X179666666Y-84442857D01*
X179666666Y-84585714D01*
X179619047Y-84680952D01*
X179571428Y-84728571D01*
X179476190Y-84776190D01*
X179095238Y-84776190D01*
X180095238Y-84728571D02*
X180428571Y-84728571D01*
X180571428Y-85252380D02*
X180095238Y-85252380D01*
X180095238Y-84252380D01*
X180571428Y-84252380D01*
X181333333Y-84728571D02*
X181000000Y-84728571D01*
X181000000Y-85252380D02*
X181000000Y-84252380D01*
X181476190Y-84252380D01*
X182000000Y-84252380D02*
X182000000Y-84490476D01*
X181761904Y-84395238D02*
X182000000Y-84490476D01*
X182238095Y-84395238D01*
X181857142Y-84680952D02*
X182000000Y-84490476D01*
X182142857Y-84680952D01*
X182761904Y-84252380D02*
X182761904Y-84490476D01*
X182523809Y-84395238D02*
X182761904Y-84490476D01*
X183000000Y-84395238D01*
X182619047Y-84680952D02*
X182761904Y-84490476D01*
X182904761Y-84680952D01*
G04 #@! TO.C,C6*
X151757333Y-94723142D02*
X151709714Y-94770761D01*
X151566857Y-94818380D01*
X151471619Y-94818380D01*
X151328761Y-94770761D01*
X151233523Y-94675523D01*
X151185904Y-94580285D01*
X151138285Y-94389809D01*
X151138285Y-94246952D01*
X151185904Y-94056476D01*
X151233523Y-93961238D01*
X151328761Y-93866000D01*
X151471619Y-93818380D01*
X151566857Y-93818380D01*
X151709714Y-93866000D01*
X151757333Y-93913619D01*
X152614476Y-93818380D02*
X152424000Y-93818380D01*
X152328761Y-93866000D01*
X152281142Y-93913619D01*
X152185904Y-94056476D01*
X152138285Y-94246952D01*
X152138285Y-94627904D01*
X152185904Y-94723142D01*
X152233523Y-94770761D01*
X152328761Y-94818380D01*
X152519238Y-94818380D01*
X152614476Y-94770761D01*
X152662095Y-94723142D01*
X152709714Y-94627904D01*
X152709714Y-94389809D01*
X152662095Y-94294571D01*
X152614476Y-94246952D01*
X152519238Y-94199333D01*
X152328761Y-94199333D01*
X152233523Y-94246952D01*
X152185904Y-94294571D01*
X152138285Y-94389809D01*
G04 #@! TD*
M02*
